<?xml version="1.0" encoding="UTF-8" standalone="no"?>
<!-- Created with Inkscape (http://www.inkscape.org/) -->

<svg
   xmlns:dc="http://purl.org/dc/elements/1.1/"
   xmlns:cc="http://creativecommons.org/ns#"
   xmlns:rdf="http://www.w3.org/1999/02/22-rdf-syntax-ns#"
   xmlns:svg="http://www.w3.org/2000/svg"
   xmlns="http://www.w3.org/2000/svg"
   xmlns:sodipodi="http://sodipodi.sourceforge.net/DTD/sodipodi-0.dtd"
   xmlns:inkscape="http://www.inkscape.org/namespaces/inkscape"
   id="svg3390"
   version="1.1"
   inkscape:version="0.91 r13725"
   width="132.5"
   height="136.25"
   viewBox="0 0 132.5 136.25"
   sodipodi:docname="el_grito_copuchalo_base3.svg"
   inkscape:export-filename="/home/fermin/curro/meneame/design/scream/p1.png"
   inkscape:export-xdpi="90"
   inkscape:export-ydpi="90">
  <metadata
     id="metadata3396">
    <rdf:RDF>
      <cc:Work
         rdf:about="">
        <dc:format>image/svg+xml</dc:format>
        <dc:type
           rdf:resource="http://purl.org/dc/dcmitype/StillImage" />
        <dc:title></dc:title>
      </cc:Work>
    </rdf:RDF>
  </metadata>
  <defs
     id="defs3394" />
  <sodipodi:namedview
     pagecolor="#ffffff"
     bordercolor="#666666"
     borderopacity="1"
     objecttolerance="10"
     gridtolerance="10"
     guidetolerance="10"
     inkscape:pageopacity="0"
     inkscape:pageshadow="2"
     inkscape:window-width="1920"
     inkscape:window-height="1007"
     id="namedview3392"
     showgrid="false"
     inkscape:zoom="2.8284271"
     inkscape:cx="36.250954"
     inkscape:cy="63.518171"
     inkscape:window-x="0"
     inkscape:window-y="25"
     inkscape:window-maximized="1"
     inkscape:current-layer="svg3390" />
  <path
     style="fill:#000000"
     d="M 24.641286,125.9052 C 24.068146,117.78373 23.557604,114.04797 20.651481,108.52334 8.3377793,87.924101 2.8767078,54.035275 14.972046,32.8125 c 1.362896,-3.15206 6.707333,-0.653457 6.707333,2.24448 4.141156,-18.050354 22.319706,-33.5019596 43.881386,-33.774048 8.205302,0 11.866576,1.5003935 12.616011,1.6035533 13.993354,2.7830966 24.689204,15.9777987 26.061064,17.7276237 2.54892,4.19133 4.54526,8.969969 5.13735,13.137287 0.83172,4.585085 0.76698,7.699428 1.4967,7.600656 10.33697,-21.689308 15.46698,9.497266 14.31152,19.15959 -0.77228,16.127562 -5.92412,29.40236 -11.08687,40.696248 -2.26372,8.56478 -2.9174,15.15633 -3.14751,20.6266 0.20407,9.07888 -0.14299,14.41551 -0.9375,14.41551 -0.69384,0 -2.05703,-3.04447 -2.58736,-6.35301 -0.54479,-8.55899 0.47892,-16.89566 1.94972,-24.89044 1.6884,-5.192477 3.52534,-10.71614 5.53141,-15.332672 3.06482,-6.75179 5.35798,-16.185034 5.73853,-23.606266 0.61706,-4.470081 0.65588,-8.683789 0.65765,-13.317545 0.002,-4.566861 -0.0146,-9.556063 -1.97749,-13.657842 C 117.0682,34.813498 114.0618,44.571342 113.125,47 c -1.48794,6.100054 -2.25183,12.304275 -2.99205,17.320226 -5.9479,17.741762 -4.43395,7.634378 -12.175811,32.260006 -0.593604,4.765048 -2.758379,12.252278 -1.63057,19.758158 2.405578,16.00979 1.10094,19.91161 0.09286,19.91161 -0.651657,0 -2.322948,-3.43122 -2.795725,-6.86872 -0.25791,-6.41024 0.0046,-13.21964 -1.560351,-8.71095 -4.067291,10.90403 -14.831352,15.36283 -22.654948,15.57969 -8.736229,0.14967 -9.926797,-0.79354 -12.888289,-3.25226 -4.691585,-3.89509 -4.175318,-4.86415 -6.50097,-9.48647 -2.32949,-6.80159 -2.21223,-7.34983 -2.840919,-11.04399 -0.698468,-2.96969 -1.461437,-7.211 -1.423763,-5.96804 -0.78751,6.16976 -2.300994,11.95341 -2.690305,17.25076 -0.661108,9.32496 -1.321562,12.5 -2.60018,12.5 -1.241958,0 -1.713974,-1.87301 -1.713974,-6.80123 0.348268,-6.64109 2.588118,-13.01161 3.070547,-18.59787 C 42.659609,100.7781 42.557404,100.17898 38.885274,93.644865 36.79274,89.92143 33.234392,83.21875 30.977834,78.75 23.421834,67.350923 21.217484,54.526238 20.040407,46.950719 19.299391,42.179864 18.46208,38.045414 18.179716,37.76305 17.11217,36.695504 14.454534,42.264366 15,41.219605 c -3.710845,14.560646 -4.06543,32.302231 1.457757,45.88652 1.557913,5.165656 3.353524,10.583604 5.318372,14.768875 1.948717,4.125 4.108533,8.72768 4.799591,10.22817 1.356897,4.27578 3.077612,23.40222 0.484945,24.14683 -1.224218,0 -1.890334,-2.84819 -2.419379,-10.3448 z M 94.292894,93.216678 C 94.609868,91.826382 94.60755,90.494029 95.639212,88.710091 108.12424,67.121132 113.70043,31.34869 92.282068,13.878408 79.749733,5.1298102 66.688341,3.5793468 52.582107,7.0783358 41.517439,9.9946334 34.344813,16.729074 29.927496,25.767211 27.12327,32.080553 25.038038,39.344264 25,45.625 c 0.364409,6.851866 1.966412,14.663415 4.338566,20.298694 3.848756,11.541529 13.03439,22.322878 17.234823,32.189183 1.621373,5.664563 4.384257,11.659263 5.213055,16.859383 1.417641,5.05441 3.155037,11.21328 7.298627,15.20212 1.952593,1.87699 6.088439,3.09781 10.254575,2.32562 22.359219,-1.77464 23.194977,-25.42691 24.953248,-39.283322 z M 63.441686,116.6762 c -2.560836,-1.349 -3.634929,-3.06943 -4.22669,-6.77011 -1.597334,-4.95276 -2.946131,-9.69629 -2.964996,-14.161126 0,-12.427558 5.896199,-15.72303 13.709063,-7.662202 3.894611,4.01822 5.301564,5.578708 5.830776,14.720518 0.459067,7.93012 -0.914039,9.97423 -2.658693,12.63691 -2.399116,3.66151 -4.561451,3.93735 -9.68946,1.23601 z m 3.001696,-27.115928 c -3.168981,-3.036077 -3.733615,-3.194184 -5.180612,-1.450658 -1.900849,2.290382 0.826669,19.536416 1.246745,21.682056 0.819891,3.24435 4.939558,5.18057 7.802985,2.91913 4.621858,-6.55523 1.886944,-17.150178 -3.869118,-23.150528 z M 54.9375,72.5 c 0,-1.375 0.625,-2.5 1.3125,-2.5 0.6875,0 1.3125,1.25 1.3125,2.625 C 57.5625,74 56.9375,75 56.25,75 55.5625,75 54.9375,73.875 54.9375,72.5 Z m 12.23196,1.752792 C 66.168066,73.251399 67.478686,70 68.883736,70 69.497681,70 70,71.125 70,72.5 c 0,2.436482 -1.325836,3.257497 -2.83054,1.752792 z M 36.5625,62.996224 c -3.989241,-4.55107 -3.711345,-10.417348 0.693399,-14.63736 4.392727,-4.2085 6.095475,-4.2085 10.488202,0 4.571103,4.379395 4.789009,11.008936 0.495619,15.078636 -3.894457,3.691554 -8.19711,3.528959 -11.67722,-0.441276 z m 10.346991,-3.104898 c 0.455379,-1.43477 0.467796,-4.52852 0.02759,-6.875 C 46.244069,49.322229 45.648936,48.75 42.5,48.75 c -3.148936,0 -3.744069,0.572229 -4.437085,4.266326 C 36.851442,59.47403 38.26719,62.5 42.5,62.5 c 2.533441,0 3.823822,-0.763395 4.409491,-2.608674 z M 39.779416,57.788785 C 39.40077,56.802047 39.39276,55.530281 39.838004,54.809859 41.19351,52.616606 43.75,53.59845 43.75,56.116264 c 0,2.913067 -3.017866,4.155262 -3.970584,1.672521 z M 76.5625,63.23972 c -4.062247,-4.285527 -3.767695,-10.606857 0.693399,-14.880856 4.392727,-4.2085 6.095475,-4.2085 10.488202,0 4.489158,4.300886 4.710346,10.212711 0.55006,14.701733 -3.685723,3.976963 -8.068265,4.043877 -11.731661,0.179123 z m 10.346991,-3.348394 c 0.455379,-1.43477 0.467796,-4.52852 0.0276,-6.875 C 86.244069,49.322229 85.648936,48.75 82.5,48.75 c -3.148936,0 -3.744069,0.572229 -4.437085,4.266326 C 76.851442,59.47403 78.26719,62.5 82.5,62.5 c 2.533441,0 3.823822,-0.763395 4.409491,-2.608674 z M 79.8125,57.783345 c 0,-1.741317 0.524538,-3.934755 1.885046,-3.539752 0.950244,0.275889 2.341973,1.363106 1.868626,3.738101 -0.309653,1.553672 -3.753672,1.519983 -3.753672,-0.198349 z"
     id="path3400"
     inkscape:connector-curvature="0"
     sodipodi:nodetypes="scccccccccccsccccsccccsscccsccccsccsccscccccscsccccccccccsccsssscscccsssssssssssssssssssssssssssssssssssssss" />
</svg>
