<?xml version="1.0" encoding="UTF-8" standalone="no"?>
<!-- Created with Inkscape (http://www.inkscape.org/) -->

<svg
   xmlns:dc="http://purl.org/dc/elements/1.1/"
   xmlns:cc="http://creativecommons.org/ns#"
   xmlns:rdf="http://www.w3.org/1999/02/22-rdf-syntax-ns#"
   xmlns:svg="http://www.w3.org/2000/svg"
   xmlns="http://www.w3.org/2000/svg"
   xmlns:sodipodi="http://sodipodi.sourceforge.net/DTD/sodipodi-0.dtd"
   xmlns:inkscape="http://www.inkscape.org/namespaces/inkscape"
   id="svg3390"
   version="1.1"
   inkscape:version="0.91 r13725"
   width="39"
   height="44.753613"
   viewBox="0 0 39 44.753613"
   sodipodi:docname="h9_eli.svg"
   inkscape:export-filename="/home/fermin/curro/meneame/design/image3398.png"
   inkscape:export-xdpi="90"
   inkscape:export-ydpi="90">
  <metadata
     id="metadata3396">
    <rdf:RDF>
      <cc:Work
         rdf:about="">
        <dc:format>image/svg+xml</dc:format>
        <dc:type
           rdf:resource="http://purl.org/dc/dcmitype/StillImage" />
        <dc:title></dc:title>
      </cc:Work>
    </rdf:RDF>
  </metadata>
  <defs
     id="defs3394" />
  <sodipodi:namedview
     pagecolor="#ffffff"
     bordercolor="#666666"
     borderopacity="1"
     objecttolerance="10"
     gridtolerance="10"
     guidetolerance="10"
     inkscape:pageopacity="0"
     inkscape:pageshadow="2"
     inkscape:window-width="1920"
     inkscape:window-height="1007"
     id="namedview3392"
     showgrid="false"
     inkscape:zoom="4.2971333"
     inkscape:cx="-28.28365"
     inkscape:cy="21.898939"
     inkscape:window-x="0"
     inkscape:window-y="25"
     inkscape:window-maximized="1"
     inkscape:current-layer="svg3390"
     fit-margin-top="0"
     fit-margin-left="0"
     fit-margin-right="0"
     fit-margin-bottom="0" />
  <path
     style="fill:#4c4c4c"
     d="m 5.6317838,41.355683 c -0.188257,-2.667634 -0.501117,-3.894707 -1.455682,-5.709365 -0.668738,-1.271292 -1.424958,-3.286304 -1.680489,-4.477804 -0.255532,-1.191502 -0.644093,-2.38264 -0.863471,-2.646974 -0.219378,-0.264334 -0.518188,-1.622197 -0.66402305,-3.017475 -0.145836,-1.395277 -0.422998,-2.63442 -0.615917,-2.75365 -0.516963,-0.319501 -0.442621,-7.148241 0.07782,-7.148241 0.23572,0 0.391342,-0.230953 0.345827,-0.513229 -0.09221,-0.571877 0.31677405,-1.833362 0.89853005,-2.771439 0.210066,-0.338731 0.561688,-1.031591 0.78138,-1.539688 0.447666,-1.035347 1.651516,-1.259814 1.651516,-0.307938 0,1.456234 1.118075,0.453698 1.602657,-1.437042 0.28938,-1.129105 0.693835,-2.052918 0.898788,-2.052918 0.204952,0 0.37264,-0.390797 0.37264,-0.868438 0,-0.929071 2.670539,-3.647981 3.5830812,-3.647981 0.30169,0 0.653135,-0.272604 0.780989,-0.605786 C 11.849068,0.545255 13.960964,0 18.540781,0 c 2.695169,0 4.453338,0.162097 4.453338,0.410583 0,0.225821 0.661016,0.410584 1.468926,0.410584 1.263924,0 1.946817,0.44408 4.893215,3.182022 2.226944,2.069389 3.3778,3.43312 3.291331,3.900135 -0.07313,0.394962 0.01715,0.810884 0.200615,0.924272 0.183462,0.113387 0.460599,1.129766 0.615855,2.258618 0.344684,2.506137 1.223346,2.732119 1.594648,0.410125 0.283979,-1.775897 0.786349,-2.003476 2.214477,-1.003177 0.752935,0.527376 0.912524,1.030018 0.912524,2.874085 0,1.22921 0.184762,2.234927 0.410583,2.234927 0.498567,0 0.554511,3.968423 0.06024,4.273893 -0.192682,0.119087 -0.456417,1.619195 -0.586076,3.333575 -0.129659,1.714379 -0.45138,3.376881 -0.714938,3.694449 -0.263559,0.317569 -0.399662,0.814563 -0.302452,1.104431 0.09721,0.289869 -0.240133,1.312119 -0.74965,2.271668 -0.509518,0.959548 -1.056704,2.345267 -1.215971,3.079375 -0.159264,0.73411 -0.497316,1.46733 -0.75122,1.629376 -0.308644,0.196981 -0.426373,1.86396 -0.355214,5.029648 0.06703,2.982111 -0.04697,4.735017 -0.307938,4.735017 -0.227903,0 -0.414371,-0.912908 -0.414371,-2.028686 0,-1.115776 -0.184762,-2.142875 -0.410583,-2.282441 -0.513542,-0.317384 -0.546973,-4.311127 -0.03609,-4.311127 0.205972,0 0.499191,-0.738082 0.651599,-1.640183 0.152409,-0.902101 0.445796,-1.744436 0.651968,-1.871857 0.206172,-0.127421 0.374856,-0.499928 0.374856,-0.827793 0,-0.327866 0.355529,-1.379347 0.790061,-2.336624 1.006692,-2.217739 1.759919,-5.316247 1.884917,-7.753876 0.0538,-1.049143 0.234847,-2.129254 0.402329,-2.400247 0.436457,-0.706201 -0.133919,-5.114605 -0.835853,-6.460273 -0.524666,-1.005834 -0.8171,-0.990386 -0.633336,0.03346 0.03467,0.193135 -0.106883,0.56266 -0.31455,0.821167 -0.207667,0.258506 -0.512632,1.11668 -0.677693,1.907053 -0.165061,0.790374 -0.439347,1.621805 -0.609519,1.847626 -0.170172,0.225821 -0.522906,1.880588 -0.783854,3.677261 -0.260943,1.796672 -0.631454,3.367154 -0.823351,3.48996 -0.191897,0.122806 -0.479177,0.823762 -0.638402,1.55768 -0.159224,0.733918 -0.45958,1.334396 -0.667457,1.334396 -0.207877,0 -0.345718,0.138572 -0.306309,0.307938 0.105885,0.455056 -0.977036,2.566147 -1.316348,2.566147 -0.222685,0 -1.023679,6.731737 -0.928234,7.801088 0.472755,5.296662 0.506785,6.569336 0.175663,6.569336 -0.214048,0 -0.516234,-0.923813 -0.671526,-2.052917 -0.288093,-2.094686 -0.771397,-2.621859 -1.223356,-1.334397 -0.138729,0.395188 -1.002591,1.318998 -1.919694,2.052918 -1.578374,1.263103 -1.848586,1.334396 -5.05765,1.334396 -2.869982,0 -3.571941,-0.139582 -4.574664,-0.909659 -1.628128,-1.250375 -1.786868,-1.540112 -1.794064,-3.274591 -0.0035,-0.833501 -0.19105,-1.629646 -0.416871,-1.769211 -0.225821,-0.139566 -0.432016,-1.028092 -0.458212,-1.974503 -0.0262,-0.946412 -0.132124,-1.397413 -0.235398,-1.002228 -0.103272,0.395188 -0.344176,0.718521 -0.53534,0.718521 -0.191165,0 -0.478563,1.847626 -0.638662,4.105836 -0.217152,3.06294 -0.434089,4.105835 -0.854073,4.105835 -0.407942,0 -0.562983,-0.615221 -0.562983,-2.233978 0,-1.228686 0.162681,-2.334519 0.361513,-2.457405 0.198832,-0.122886 0.490009,-1.766005 0.64706,-3.651379 0.275604,-3.308587 0.242033,-3.505378 -0.96414,-5.651618 -0.6873282,-1.223019 -1.8561282,-3.424627 -2.5973322,-4.892463 -0.741205,-1.467836 -1.486217,-2.73038 -1.655583,-2.805654 -0.169365,-0.07527 -0.307937,-0.38658 -0.307937,-0.691792 0,-0.305213 -0.218361,-1.075057 -0.485246,-1.710765 -0.533509,-1.270799 -0.513783,-1.180483 -1.143816,-5.236798 -0.243399,-1.567068 -0.518428,-2.925098 -0.611175,-3.017845 -0.350654,-0.350653 -1.044432,0.403528 -1.044432,1.135364 0,0.419496 -0.230953,0.840306 -0.513229,0.935132 -0.693476,0.232962 -0.661841,10.381521 0.03453,11.077894 0.263285,0.263284 0.478699,0.799242 0.478699,1.191019 0,0.391777 0.215472,1.232447 0.478825,1.868155 0.263354,0.635709 0.502289,1.432978 0.530968,1.771709 0.02868,0.338732 0.575852,1.724451 1.215941,3.079377 0.640089,1.354925 1.349517,2.866753 1.576506,3.359614 0.22699,0.492865 0.303847,1.179807 0.170792,1.52654 -0.133054,0.346733 -0.06522,0.739629 0.150735,0.873098 0.646395,0.399494 0.495873,5.531795 -0.162238,5.531795 -0.402115,0 -0.620912,-0.935536 -0.794686,-3.397923 z M 25.412863,41.62763 c 1.765354,-2.005549 1.917244,-2.521193 2.284193,-7.754488 0.126674,-1.806567 0.413672,-3.346256 0.637774,-3.421529 0.224102,-0.07527 0.407458,-0.398609 0.407458,-0.718521 0,-0.319913 0.247571,-0.58166 0.550158,-0.58166 0.302586,0 0.801091,-0.785242 1.107788,-1.744981 0.3067,-0.959739 0.783289,-2.114505 1.059086,-2.566147 0.2758,-0.451642 0.630321,-1.885994 0.787824,-3.187448 0.157503,-1.301455 0.449537,-2.467126 0.648965,-2.590379 0.489186,-0.302332 0.462656,-4.523346 -0.03404,-5.416145 -0.218154,-0.392123 -0.600779,-1.775335 -0.850279,-3.073806 -0.2495,-1.29847 -0.625302,-2.360855 -0.83511,-2.360855 -0.209812,0 -0.381475,-0.254764 -0.381475,-0.566142 0,-0.311379 -1.299421,-1.791951 -2.887603,-3.290161 -2.024197,-1.909525 -3.221168,-2.73544 -4.003189,-2.762219 -3.271726,-0.112036 -8.610812,-0.04211 -9.327258,0.122164 -1.420358,0.325667 -3.079377,1.124398 -3.079377,1.482559 0,0.189262 -0.638892,0.594794 -1.419761,0.901183 -0.9998472,0.392309 -1.4926352,0.888858 -1.6661502,1.678865 -0.135513,0.616986 -0.605195,1.825576 -1.043739,2.685754 -0.438544,0.860178 -0.797352,1.894419 -0.797352,2.298312 0,0.403894 -0.184763,0.734353 -0.410584,0.734353 -0.241519,0 -0.410583,1.437042 -0.410583,3.48996 0,2.277784 0.157866,3.48996 0.454511,3.48996 0.249981,0 0.350432,0.271227 0.223224,0.602727 -0.127209,0.331499 -0.07554,0.698984 0.114819,0.816632 0.190358,0.117648 0.474993,0.908806 0.632521,1.758129 0.157527,0.849323 0.72477,2.121898 1.260539,2.827945 0.535769,0.706047 0.85894,1.398907 0.718159,1.539688 -0.140781,0.140782 -0.05509,0.255967 0.190425,0.255967 0.245515,0 0.568133,0.554287 0.7169292,1.23175 0.148796,0.677463 0.529481,1.231751 0.845968,1.231751 0.316486,0 0.695131,0.508097 0.841432,1.129105 0.146302,0.621007 0.728111,1.626172 1.292907,2.233698 0.5914,0.636143 0.924827,1.370601 0.78621,1.731833 -0.132381,0.344978 -0.08828,0.721434 0.09801,0.836565 0.186286,0.115131 0.466549,1.50677 0.622805,3.092525 0.156257,1.585759 0.457678,2.883197 0.669825,2.883197 0.212147,0 0.385722,0.236033 0.385722,0.524515 0,0.288489 0.28762,0.935159 0.639157,1.437043 0.573799,0.819216 0.990077,0.912527 4.070941,0.912527 l 3.431785,0 1.667365,-1.894226 z m -7.036434,-3.303368 c -0.84115,-0.443102 -1.193954,-1.008206 -1.388328,-2.223757 -0.143329,-0.896326 -0.421091,-1.728878 -0.61725,-1.850112 -0.196159,-0.121231 -0.356653,-1.381837 -0.356653,-2.801348 0,-4.08204 1.936706,-5.164494 4.502973,-2.516779 1.27925,1.319852 1.392996,1.658225 1.566825,4.661006 0.150788,2.604782 0.04816,3.4504 -0.524901,4.325002 -0.78803,1.202684 -1.498285,1.293289 -3.182666,0.405988 z m 2.975355,-4.104173 c 0,-1.207014 -0.184762,-2.194573 -0.410583,-2.194573 -0.225821,0 -0.410584,-0.334957 -0.410584,-0.74435 0,-0.409393 -0.525704,-1.248007 -1.168231,-1.863587 -1.040905,-0.997251 -1.226368,-1.049184 -1.701659,-0.476493 -0.624366,0.752314 -0.271259,6.893171 0.409514,7.121836 0.224103,0.07527 0.407459,0.385059 0.407459,0.688414 0,0.807184 1.323736,0.973251 2.155563,0.270424 0.518966,-0.438487 0.718521,-1.216595 0.718521,-2.801671 z M 15.603615,23.813845 c 0,-0.451641 0.184762,-0.821167 0.410583,-0.821167 0.225821,0 0.410584,0.369526 0.410584,0.821167 0,0.451642 -0.184763,0.821168 -0.410584,0.821168 -0.225821,0 -0.410583,-0.369526 -0.410583,-0.821168 z m 3.997264,0.575734 c -0.328925,-0.328924 0.10157,-1.396901 0.563083,-1.396901 0.20166,0 0.366655,0.369526 0.366655,0.821167 0,0.800304 -0.435493,1.06998 -0.929738,0.575734 z M 9.5475068,20.69217 c -1.310333,-1.494875 -1.219053,-3.421753 0.227759,-4.807887 1.4428652,-1.382353 2.0021612,-1.382353 3.4450272,0 1.501455,1.438486 1.57303,3.61607 0.162794,4.952832 -1.2792,1.212553 -2.692479,1.159146 -3.8355802,-0.144945 z m 3.3986442,-1.019856 c 0.149577,-0.471274 0.153655,-1.487468 0.0091,-2.258209 -0.227631,-1.213389 -0.423113,-1.401347 -1.457434,-1.401347 -1.034321,0 -1.229802,0.187958 -1.457435,1.401347 -0.3979292,2.121141 0.0671,3.115072 1.457435,3.115072 0.832152,0 1.255999,-0.25075 1.448372,-0.856863 z m -2.526756,-0.56744 c -0.124373,-0.32411 -0.106474,-0.782902 0.03977,-1.019537 0.445239,-0.72041 1.449195,-0.480024 1.449195,0.346994 0,0.956846 -1.176032,1.488041 -1.488968,0.672543 z m 12.266786,1.667277 c -1.334314,-1.407654 -1.237563,-3.484001 0.227758,-4.887868 1.442866,-1.382353 2.002162,-1.382353 3.445027,0 1.47454,1.412698 1.547192,3.354537 0.180676,4.829032 -1.210637,1.3063 -2.650157,1.328279 -3.853461,0.05884 z m 3.398643,-1.099837 c 0.149577,-0.471274 0.153656,-1.487468 0.0091,-2.258209 -0.227635,-1.213389 -0.423116,-1.401347 -1.457437,-1.401347 -1.034321,0 -1.229803,0.187958 -1.457436,1.401347 -0.397928,2.121141 0.0671,3.115072 1.457436,3.115072 0.832151,0 1.255998,-0.25075 1.448371,-0.856863 z m -1.858955,-1.22616 c 0,-0.571965 0.223024,-0.807717 0.679731,-0.718522 0.989587,0.193267 1.081752,1.569794 0.105106,1.569794 -0.520366,0 -0.784837,-0.286857 -0.784837,-0.851272 z"
     id="path3400"
     inkscape:connector-curvature="0" />
</svg>
