<?xml version="1.0" encoding="UTF-8" standalone="no"?>
<!-- Generator: Adobe Illustrator 17.0.0, SVG Export Plug-In . SVG Version: 6.00 Build 0)  -->

<svg
   xmlns:dc="http://purl.org/dc/elements/1.1/"
   xmlns:cc="http://creativecommons.org/ns#"
   xmlns:rdf="http://www.w3.org/1999/02/22-rdf-syntax-ns#"
   xmlns:svg="http://www.w3.org/2000/svg"
   xmlns="http://www.w3.org/2000/svg"
   xmlns:sodipodi="http://sodipodi.sourceforge.net/DTD/sodipodi-0.dtd"
   xmlns:inkscape="http://www.inkscape.org/namespaces/inkscape"
   version="1.1"
   id="Capa_1"
   x="0px"
   y="0px"
   width="321.478"
   height="319.91599"
   viewBox="0 0 321.47799 319.91597"
   enable-background="new 0 0 841.89 595.28"
   xml:space="preserve"
   inkscape:version="0.91 r13725"
   sodipodi:docname="logo-white.svg"><metadata
     id="metadata13"><rdf:RDF><cc:Work
         rdf:about=""><dc:format>image/svg+xml</dc:format><dc:type
           rdf:resource="http://purl.org/dc/dcmitype/StillImage" /><dc:title></dc:title></cc:Work></rdf:RDF></metadata><defs
     id="defs11" /><sodipodi:namedview
     pagecolor="#ffffff"
     bordercolor="#666666"
     borderopacity="1"
     objecttolerance="10"
     gridtolerance="10"
     guidetolerance="10"
     inkscape:pageopacity="0"
     inkscape:pageshadow="2"
     inkscape:window-width="1920"
     inkscape:window-height="1007"
     id="namedview9"
     showgrid="false"
     inkscape:zoom="1.0073785"
     inkscape:cx="162.54756"
     inkscape:cy="147.31129"
     inkscape:window-x="0"
     inkscape:window-y="25"
     inkscape:window-maximized="1"
     inkscape:current-layer="Capa_1"
     fit-margin-top="0"
     fit-margin-left="0"
     fit-margin-right="0"
     fit-margin-bottom="0" /><g
     id="g3"
     transform="translate(-260.298,-138.04)"><path
       d="m 443.43,457.956 c 14.064,-1.961 27.548,-5.729 40.201,-11.084 l 0,-120.24 -40.201,0 0,131.324 z"
       id="path5"
       inkscape:connector-curvature="0" /><path
       d="m 421.036,138.04 c -88.773,0 -160.738,71.965 -160.738,160.738 0,47.495 20.605,90.172 53.356,119.597 l 0,-81.49 44.788,0 0,109.987 c 12.653,5.354 26.137,9.123 40.201,11.084 l 0,-131.323 -84.989,0 0,-44.788 84.989,0 44.788,0 40.201,0 44.788,0 0,44.788 0,91.743 C 561.171,388.95 581.776,346.273 581.776,298.779 581.774,210.005 509.809,138.04 421.036,138.04 Z"
       id="path7"
       inkscape:connector-curvature="0" /></g><path
     style="fill:#ffffff;fill-opacity:1"
     d="m 127.29922,317.52285 c -9.09143,-2.00892 -19.72217,-5.22074 -25.5537,-7.72043 l -3.58515,-1.53677 0,-55.0688 0,-55.06881 -22.66354,0 -22.66355,0 0,40.06591 c 0,22.90815 -0.30889,40.06591 -0.7213,40.06591 -1.14412,0 -13.41622,-13.28822 -18.78258,-20.33775 C -10.13779,200.82124 -10.47839,122.18588 32.49193,64.57501 38.25936,56.84255 52.26304,42.36851 60.11799,36.02105 83.64782,17.00698 112.89508,4.84984 143.45068,1.38236 c 10.80397,-1.22605 34.30534,-0.54818 44.55446,1.28513 43.58031,7.7954 81.52801,32.63767 106.17774,69.50868 12.37232,18.5065 20.27464,38.21983 24.69455,61.60359 1.94283,10.27863 2.32534,36.82409 0.69857,48.47887 -4.76608,34.14593 -19.65029,64.75732 -43.82552,90.13299 -3.07485,3.22754 -6.04578,5.86824 -6.60207,5.86824 -0.80091,0 -1.01144,-14.0683 -1.01144,-67.58593 l 0,-67.58593 -107.65185,0 -107.65184,0 0,23.06825 0,23.06826 42.49415,0 42.49415,0 0,65.15769 c 0,51.62363 -0.21016,65.14325 -1.01177,65.08816 -0.55647,-0.0382 -4.83623,-0.91462 -9.51059,-1.94751 z"
     id="path3343"
     inkscape:connector-curvature="0" /><path
     style="fill:#ffffff;fill-opacity:1"
     d="m 183.14867,254.39177 0,-65.16726 19.8306,0 19.83061,0 0,59.79725 0,59.79727 -7.08236,2.54255 c -7.25221,2.60353 -22.98696,6.74972 -29.13885,7.67823 l -3.44,0.51922 0,-65.16726 z"
     id="path3345"
     inkscape:connector-curvature="0" /></svg>