<?xml version="1.0" encoding="utf-8"?>
<!-- Generator: Adobe Illustrator 17.0.0, SVG Export Plug-In . SVG Version: 6.00 Build 0)  -->
<!DOCTYPE svg PUBLIC "-//W3C//DTD SVG 1.1//EN" "http://www.w3.org/Graphics/SVG/1.1/DTD/svg11.dtd">
<svg version="1.1" id="Capa_1" xmlns="http://www.w3.org/2000/svg" xmlns:xlink="http://www.w3.org/1999/xlink" x="0px" y="0px"
	 width="841.89px" height="595.28px" viewBox="0 0 841.89 595.28" enable-background="new 0 0 841.89 595.28" xml:space="preserve">
<g>
	<linearGradient id="SVGID_1_" gradientUnits="userSpaceOnUse" x1="443.4299" y1="392.2942" x2="483.631" y2="392.2942">
		<stop  offset="0" style="stop-color:#CE6C3B"/>
		<stop  offset="1" style="stop-color:#CE6C3B"/>
	</linearGradient>
	<path fill="url(#SVGID_1_)" d="M443.43,457.956c14.064-1.961,27.548-5.729,40.201-11.084v-120.24H443.43V457.956z"/>
	<linearGradient id="SVGID_2_" gradientUnits="userSpaceOnUse" x1="260.2979" y1="297.9977" x2="581.7744" y2="297.9977">
		<stop  offset="0" style="stop-color:#CE6C3B"/>
		<stop  offset="1" style="stop-color:#CE6C3B"/>
	</linearGradient>
	<path fill="url(#SVGID_2_)" d="M421.036,138.04c-88.773,0-160.738,71.965-160.738,160.738c0,47.495,20.605,90.172,53.356,119.597
		v-81.49h44.788v109.987c12.653,5.354,26.137,9.123,40.201,11.084V326.633h-84.989v-44.788h84.989h44.788h40.201h44.788v44.788
		v91.743c32.751-29.426,53.356-72.103,53.356-119.597C581.774,210.005,509.809,138.04,421.036,138.04z"/>
</g>
</svg>
